<svg width="62" height="62" viewBox="0 0 62 62" fill="none" xmlns="http://www.w3.org/2000/svg">
<path d="M17.05 35.6035V29.7083M17.05 35.6035C17.0425 36.8295 16.5484 38.0023 15.6765 38.8641C14.8045 39.7259 13.626 40.2061 12.4 40.1992C11.174 40.2061 9.99552 39.7259 9.12354 38.8641C8.25157 38.0023 7.75751 36.8295 7.75 35.6035V33.5833C7.75 23.8958 7.75 19.0521 10.2171 15.6576C11.0129 14.5614 11.9762 13.5972 13.0717 12.8004C16.4687 10.3333 21.3151 10.3333 31 10.3333C40.6849 10.3333 45.5312 10.3333 48.9257 12.8004C50.0221 13.597 50.9863 14.5612 51.7829 15.6576C54.25 19.0521 54.25 23.9242 54.25 33.6608C54.25 37.603 54.25 39.5767 53.8444 41.199C53.2242 43.6504 51.9458 45.8857 50.1473 47.6632C48.3489 49.4408 46.0988 50.6929 43.6402 51.2843C42.5862 51.5427 40.7727 51.6331 38.5562 51.6667C36.3707 51.6667 34.4875 51.863 34.4875 49.0833C34.4875 46.4587 35.3322 43.6454 38.5562 43.6454H40.3M17.05 35.6035V39.0497C17.0575 40.2756 17.5516 41.4484 18.4235 42.3102C19.2955 43.172 20.474 43.6523 21.7 43.6454C24.2678 43.6454 26.35 41.5865 26.35 39.0497M40.3 43.6454C41.526 43.6523 42.7045 43.172 43.5765 42.3102C44.4484 41.4484 44.9425 40.2756 44.95 39.0497V29.7083M40.3 43.6454C39.074 43.6523 37.8955 43.172 37.0235 42.3102C36.1516 41.4484 35.6575 40.2756 35.65 39.0497M26.35 39.0497V28.7112M26.35 39.0497V41.106C26.3575 42.332 26.8516 43.5048 27.7235 44.3666C28.5955 45.2284 29.774 45.7086 31 45.7017C33.5678 45.7017 35.65 43.6454 35.65 41.106V39.0497M35.65 39.0497V28.7112" stroke="#980808" stroke-width="5" stroke-linecap="round" stroke-linejoin="round"/>
</svg>

