<svg width="25" height="24" viewBox="0 0 25 24" fill="none" xmlns="http://www.w3.org/2000/svg">
<path fill-rule="evenodd" clip-rule="evenodd" d="M16.6 13.359L17.056 12.906C17.686 12.28 18.667 12.151 19.473 12.589L21.383 13.628C22.61 14.295 22.881 15.93 21.922 16.883L20.502 18.295C20.14 18.655 19.692 18.917 19.176 18.965C17.984 19.076 15.531 19.016 12.637 17.322L16.6 13.359ZM10.69 7.48298L10.977 7.19698C11.684 6.49498 11.751 5.36698 11.134 4.54298L9.874 2.85998C9.11 1.83998 7.635 1.70498 6.76 2.57498L5.19 4.13498C4.757 4.56698 4.467 5.12498 4.502 5.74498C4.567 6.88498 4.955 8.96498 6.651 11.521L10.69 7.48298Z" fill="#F8F8F8"/>
<path opacity="0.6" d="M12.563 11.4969C9.617 8.56793 10.683 7.48893 10.69 7.48193L6.651 11.5219C7.318 12.5259 8.186 13.6029 9.315 14.7259C10.455 15.8599 11.575 16.7009 12.637 17.3219L16.6 13.3599C16.6 13.3599 15.518 14.4359 12.563 11.4979" fill="#F8F8F8"/>
</svg>
