<svg width="25" height="24" viewBox="0 0 25 24" fill="none" xmlns="http://www.w3.org/2000/svg">
<path d="M12.54 2.00005C7.08005 2.00005 2.63005 6.45005 2.63005 11.9101C2.63005 13.6601 3.09005 15.3601 3.95005 16.8601L2.55005 22.0001L7.80005 20.6201C9.25005 21.4101 10.88 21.8301 12.54 21.8301C18 21.8301 22.4501 17.3801 22.4501 11.9201C22.4501 9.27005 21.42 6.78005 19.55 4.91005C18.6331 3.98416 17.5411 3.25002 16.3376 2.75042C15.134 2.25081 13.8431 1.99574 12.54 2.00005ZM12.55 3.67005C14.75 3.67005 16.81 4.53005 18.37 6.09005C19.1354 6.85557 19.7423 7.76457 20.1558 8.76497C20.5694 9.76538 20.7815 10.8375 20.7801 11.9201C20.7801 16.4601 17.08 20.1501 12.54 20.1501C11.06 20.1501 9.61005 19.7601 8.35005 19.0001L8.05005 18.8301L4.93005 19.6501L5.76005 16.6101L5.56005 16.2901C4.7346 14.9785 4.29772 13.4598 4.30005 11.9101C4.31005 7.37005 8.00005 3.67005 12.55 3.67005ZM9.03005 7.33005C8.87005 7.33005 8.60005 7.39005 8.37005 7.64005C8.15005 7.89005 7.50005 8.50005 7.50005 9.71005C7.50005 10.9301 8.39005 12.1001 8.50005 12.2701C8.64005 12.4401 10.26 14.9401 12.75 16.0001C13.34 16.2701 13.8 16.4201 14.16 16.5301C14.75 16.7201 15.29 16.6901 15.72 16.6301C16.2 16.5601 17.18 16.0301 17.39 15.4501C17.6 14.8701 17.6 14.3801 17.54 14.2701C17.47 14.1701 17.31 14.1101 17.06 14.0001C16.81 13.8601 15.59 13.2601 15.37 13.1801C15.14 13.1001 15 13.0601 14.81 13.3001C14.65 13.5501 14.17 14.1101 14.03 14.2701C13.88 14.4401 13.74 14.4601 13.5 14.3401C13.24 14.2101 12.44 13.9501 11.5 13.1101C10.76 12.4501 10.27 11.6401 10.12 11.3901C10 11.1501 10.11 11.0001 10.23 10.8901C10.34 10.7801 10.5 10.6001 10.6 10.4501C10.73 10.3101 10.77 10.2001 10.85 10.0401C10.93 9.87005 10.89 9.73005 10.83 9.61005C10.77 9.50005 10.27 8.26005 10.06 7.77005C9.86005 7.29005 9.66005 7.35005 9.50005 7.34005C9.36005 7.34005 9.20005 7.33005 9.03005 7.33005Z" fill="#F8F8F8"/>
</svg>
