<svg width="25" height="24" viewBox="0 0 25 24" fill="none" xmlns="http://www.w3.org/2000/svg">
<path d="M20.107 6.995C20.031 6.697 19.815 6.472 19.568 6.403C19.13 6.28 17.001 6 12.501 6C8.001 6 5.873 6.28 5.432 6.403C5.188 6.471 4.972 6.696 4.895 6.995C4.786 7.419 4.501 9.195 4.501 12C4.501 14.805 4.786 16.58 4.895 17.006C4.971 17.303 5.187 17.528 5.433 17.596C5.873 17.72 8 18 12.5 18C17 18 19.129 17.72 19.569 17.597C19.813 17.529 20.029 17.304 20.106 17.005C20.216 16.581 20.5 14.8 20.5 12C20.5 9.2 20.216 7.42 20.107 6.995ZM22.043 6.498C22.5 8.28 22.5 12 22.5 12C22.5 12 22.5 15.72 22.043 17.502C21.789 18.487 21.046 19.262 20.105 19.524C18.397 20 12.5 20 12.5 20C12.5 20 6.607 20 4.895 19.524C3.95 19.258 3.208 18.484 2.957 17.502C2.5 15.72 2.5 12 2.5 12C2.5 12 2.5 8.28 2.957 6.498C3.211 5.513 3.954 4.738 4.895 4.476C6.608 4 12.501 4 12.501 4C12.501 4 18.397 4 20.106 4.476C21.05 4.742 21.793 5.516 22.044 6.498M10.501 15.5V8.5L16.501 12L10.501 15.5Z" fill="#F8F8F8"/>
</svg>
